# xmcd
#
# Track frame offsets:
#	150
#	19710
#	37088
#	77705
#	102455
#	118027
#	136375
#	154515
#	175626
#	198543
#	215549
#	232940
#	261160
#	280255
#	299007
#	315445
#	331629
#	340895
#
# Disc length: 4795
#
# Revision: 2
# Processed by: cddbd v1.5.1PL0 Copyright (c) Steve Scherf et al.
# Submitted via: CDex 1.50beta8
# Normalized: r1:TDELIM( - )
#
DISCID=0212b912
DTITLE=Various Artist - Romatic Collection. Blues For Love
DYEAR=2000
DGENRE=Blues
TTITLE0=Grand Funk Railroad - It's a Man's World
TTITLE1=Chris Isaak - Blue Spanish Sky
TTITLE2=Stevie Ray Vaughan - Tin Pan Allau
TTITLE3=Dire Straits - You and Your Friend
TTITLE4=Chris Rea - Sing a Song of Love Me
TTITLE5=Garry Moore - Still Got The Blues
TTITLE6=Robert Cray - Move a Mountain
TTITLE7=Santana - Flor D'Luna (Moonflower)
TTITLE8=Kingdom Come - What Love Can Be
TTITLE9=Vaya Con Dios - Forever Blue
TTITLE10=Oscar Benton - Bensonhurst Blues
TTITLE11=Belle Epoque - Sorry
TTITLE12=ZZ Top - Blue Jean Blues
TTITLE13=Tony Joe White - Cold Fingers
TTITLE14=Los Lobos - Someday
TTITLE15=Eric Clapton - Wonderful Tonight (Slowhand)
TTITLE16=Little Blue - Noonwine
TTITLE17=Joe Cocker - You Can Leave Your Hat on
EXTD=YEAR: 2000
EXTT0=
EXTT1=
EXTT2=
EXTT3=
EXTT4=
EXTT5=
EXTT6=
EXTT7=
EXTT8=
EXTT9=
EXTT10=
EXTT11=
EXTT12=
EXTT13=
EXTT14=
EXTT15=
EXTT16=
EXTT17=
PLAYORDER=
